<?xml version="1.0" standalone="no"?>
<!DOCTYPE svg PUBLIC "-//W3C//DTD SVG 1.1//EN" "http://www.w3.org/Graphics/SVG/1.1/DTD/svg11.dtd" >
<svg xmlns="http://www.w3.org/2000/svg" xmlns:xlink="http://www.w3.org/1999/xlink" version="1.1">
<metadata>
Created by FontForge 20190801 at Thu Mar  7 11:25:48 2024
 By Jenkins
</metadata>
<defs>
<font id="edk" horiz-adv-x="512" >
  <font-face 
    font-family="edk"
    font-weight="400"
    font-stretch="normal"
    units-per-em="512"
    panose-1="2 0 5 9 0 0 0 0 0 0"
    ascent="448"
    descent="-64"
    bbox="-0.222222 -64 512.222 448.379"
    underline-thickness="25"
    underline-position="-50"
    unicode-range="U+F101-F14A"
  />
<missing-glyph 
d="M17 0v341h136v-341h-136zM34 17h102v307h-102v-307z" />
    <glyph glyph-name=".notdef" 
d="M17 0v341h136v-341h-136zM34 17h102v307h-102v-307z" />
    <glyph glyph-name=".null" horiz-adv-x="0" 
 />
    <glyph glyph-name="nonmarkingreturn" 
 />
    <glyph glyph-name="a11y" unicode="&#xf101;" 
d="M436 214.5q9 -9.5 8 -22.5l-12 -148q-1 -11 -9.5 -18.5t-19.5 -7.5h-2q-12 1 -19.5 10t-6.5 21l9 115l-38 -2q14 -30 14 -64q0 -58 -39 -100l-37 36q24 27 24 64q0 39 -27.5 66.5t-66.5 27.5q-36 0 -63 -25l-37 37q33 31 77 38l70 80l-40 24l-48 -44q-9 -7 -21 -6.5
t-19.5 9.5t-7 20.5t9.5 19.5l64 57q15 14 33 4l131 -77q10 -6 13 -18q5 -17 -7 -31l-55 -62l100 5q13 1 22 -8.5zM383 337q-20 0 -34 14t-14 33.5t14 33.5t34 14t34 -14t14 -33q0 -13 -6.5 -24t-17.5 -17.5t-24 -6.5zM214 4q29 0 53 16l37 -37q-39 -31 -90 -31
q-60 0 -103 42.5t-43 103.5q0 50 31 90l37 -38q-16 -23 -16 -52q0 -39 27.5 -66.5t66.5 -27.5z" />
    <glyph glyph-name="agency" unicode="&#xf102;" 
d="M350 416q11 0 18.5 -7.5t7.5 -18.5v-422h-224v422q0 11 7.5 18.5t18.5 7.5h172zM216 32v32h-32v-32h32zM216 96v32h-32v-32h32zM216 160v32h-32v-32h32zM216 224v32h-32v-32h32zM216 288v32h-32v-32h32zM216 352v32h-32v-32h32zM280 32v32h-32v-32h32zM280 96v32h-32v-32
h32zM280 160v32h-32v-32h32zM280 224v32h-32v-32h32zM280 288v32h-32v-32h32zM280 352v32h-32v-32h32zM344 32v32h-32v-32h32zM344 96v32h-32v-32h32zM344 160v32h-32v-32h32zM344 224v32h-32v-32h32zM344 288v32h-32v-32h32zM344 352v32h-32v-32h32zM8 262q0 11 7.5 18.5
t18.5 7.5h102v-320h-102q-11 0 -18.5 7.5t-7.5 18.5v268zM88 256v-48h32v48h-32zM88 192v-48h32v48h-32zM88 128v-48h32v48h-32zM88 64v-48h32v48h-32zM40 256v-48h32v48h-32zM40 192v-48h32v48h-32zM40 128v-48h32v48h-32zM40 64v-48h32v48h-32zM504 310v-316
q0 -11 -7.5 -18.5t-18.5 -7.5h-86v80h80v16h-80v32h80v16h-80v32h80v16h-80v32h80v16h-80v32h80v16h-80v32h80v16h-80v32h86q11 0 18.5 -7.5t7.5 -18.5z" />
    <glyph glyph-name="agriculture" unicode="&#xf103;" 
d="M320 448q4 0 7.5 -3t3.5 -8v-67v-17v-215q0 -9 -6 -18t-13 -13l-45 -22v-149h-22v148l-45 23q-7 4 -13 13t-6 18v225v7v67q0 3 1.5 5.5t4 4t5.5 1.5q4 0 7.5 -3t3.5 -8v-57l21 -10v46q0 3 1.5 5.5t4 4t5.5 1.5q4 0 7 -3.5t3 -7.5v-57l3 -1q4 -2 8 -6q4 4 8 6l3 2v56
q0 4 3 7.5t7 3.5q3 0 5.5 -1.5t4 -4t1.5 -5.5v-46l21 11v56q0 5 3.5 8t7.5 3zM245 327q0 8 -7 12l-35 17v-50q0 -8 7 -12l35 -18v51zM245 252l-42 22v-51q0 -8 7 -12l35 -17v58zM203 138q0 -8 7 -12l35 -18v62l-42 21v-53zM309 138v54l-42 -22v-61l35 17q7 4 7 12zM309 224
v50l-42 -21v-59l35 18q7 3 7 12zM309 306v47v4l-35 -18q-7 -3 -7 -11v-51l35 17q7 4 7 12zM448 320q4 0 7.5 -3t3.5 -8v-38v-2v-168q0 -8 -6 -16.5t-15 -11.5l-22 -7v-130h-21v130l-23 7q-8 3 -14 11.5t-6 16.5v168v2v38q0 4 3 7.5t7.5 3.5t7.5 -3.5t3 -7.5v-24l22 -7v10
q0 4 3 7.5t7 3.5q3 0 5.5 -1.5t4 -4t1.5 -5.5v-10l21 7v24q0 5 3.5 8t7.5 3zM395 249q0 6 -6 8l-16 5v-34q0 -6 6 -8l16 -5v33v1zM395 152v40l-22 8v-35q0 -6 6 -8zM379 93l16 -5v10v32l-22 7v-36q0 -6 6 -8zM437 101v36l-21 -7v-32v-10l16 5q5 2 5 8zM437 165v35l-21 -8
v-40l16 5q5 2 5 8zM437 228v34l-15 -5q-6 -2 -6 -8v-1v-33l16 5q5 2 5 8zM149.5 320q4.5 0 7.5 -3t3 -8v-38v-2v-168q0 -8 -6 -16.5t-14 -11.5l-23 -7v-130h-21v130l-22 7q-6 2 -10.5 6.5t-7.5 10.5t-3 11v168v2v38q0 4 3.5 7.5t7.5 3.5t7.5 -3.5t3.5 -7.5v-24l21 -7v10
q0 3 1.5 5.5t4 4t5.5 1.5q4 0 7 -3.5t3 -7.5v-10l22 7v24q0 5 3 8t7.5 3zM96 249q0 6 -6 8l-15 5v-34q0 -6 5 -8l16 -5v33v1zM96 152v40l-21 8v-35q0 -6 5 -8zM80 93l16 -5v10v32l-21 7v-36q0 -6 5 -8zM139 101v36l-22 -7v-32v-10l16 5q6 2 6 8zM139 165v35l-22 -8v-40l16 5
q6 2 6 8zM139 228v34l-16 -5q-6 -2 -6 -8v-1v-33l16 5q6 2 6 8z" />
    <glyph glyph-name="appstore" unicode="&#xf104;" 
d="M394 176q0 -13 2 -24t6 -20t9 -16.5t10.5 -13.5t11 -10.5t10.5 -8t9 -5.5t6.5 -3.5l2.5 -1.5l-1.5 -4.5t-4 -11.5t-6.5 -15.5t-10 -19t-13 -20.5q-12 -20 -21 -31t-24 -20.5t-31 -10.5q-17 0 -40 10.5t-43 10.5q-21 0 -45 -10t-38 -11q-16 0 -32 10.5t-25 21.5t-23 32
q-23 33 -38 75.5t-15 91.5t21 85q11 20 27.5 34t36 22t41.5 8q18 1 46.5 -10.5t35.5 -11.5q6 0 40 13t57 11q60 -4 92 -50l-3.5 -2.5t-8.5 -6.5t-11 -10t-11.5 -14t-10 -17t-7.5 -21t-2 -25zM330 363q-13 -17 -33.5 -27t-40.5 -8q-5 42 27 78q13 16 33.5 26.5t40.5 11.5
q4 -43 -27 -81z" />
    <glyph glyph-name="armyduty" unicode="&#xf105;" 
d="M256 85q-39 0 -71.5 29.5t-47.5 77.5q-13 1 -21.5 16t-8.5 37q0 15 4 27q3 10 13 7t7 -13t-3 -21q0 -9 2 -17t4.5 -11.5t4.5 -3.5q5 3 10 1t6 -7q12 -45 39.5 -72.5t61.5 -27.5t61.5 27.5t39.5 72.5q1 6 6 8t10 -1q1 0 2.5 1t3 3.5t2.5 6.5t2 9t1 11q0 12 -3 21
q-3 10 7 13t13 -7q4 -12 4 -27q0 -22 -8.5 -37t-21.5 -16q-15 -48 -47.5 -77.5t-71.5 -29.5zM501 -64h-490q-5 0 -8.5 4t-2.5 9l15 73q8 39 45 54l87 36q7 3 12 -2q42 -46 97 -46t97 46q5 5 12 2l87 -36q37 -15 45 -54l15 -73q1 -5 -2.5 -9t-8.5 -4zM24 -43h464l-12 61
q-5 28 -32 38l-81 34q-47 -47 -107 -47t-107 47l-81 -34q-27 -10 -32 -38zM224 235h-21q-5 0 -8 3t-3 7.5t3 7.5t8 3h21q4 0 7.5 -3t3.5 -7.5t-3.5 -7.5t-7.5 -3zM309 235h-21q-4 0 -7.5 3t-3.5 7.5t3.5 7.5t7.5 3h21q5 0 8 -3t3 -8q0 -3 -1.5 -5t-4 -3.5t-5.5 -1.5z
M416 256h-21q-4 0 -7 2l-36 28q-22 -9 -96 -9q-79 0 -113 9l-17 -25q-3 -5 -9 -5h-21q-4 0 -7.5 3t-3.5 8q0 48 15 84t40 56.5t54 30.5t62 10t62 -10t54 -30.5t40 -56.5t15 -84q0 -5 -3.5 -8t-7.5 -3zM398 277h7q-3 71 -42 110.5t-107 39.5t-107 -39.5t-42 -110.5h5l18 28
q5 7 13 3q23 -9 113 -9q72 0 88 6q1 2 3 3q6 3 11 -1zM152 92q-3 0 -5 1q-10 5 -5 14l19 37q5 9 14.5 4t4.5 -14l-19 -37q-3 -5 -9 -5zM360 92q-6 0 -9 5l-19 37q-5 9 4.5 14t14.5 -4l19 -37q5 -9 -5 -14q-2 -1 -5 -1zM245.5 -64q-4.5 0 -7.5 3t-3 8v149q0 4 3 7.5t7.5 3.5
t7.5 -3.5t3 -7.5v-149q0 -5 -3 -8t-7.5 -3zM75 21q-6 0 -9 5q-6 8 2 15l75 53q9 6 15 -2.5t-2 -14.5l-75 -54q-3 -2 -6 -2zM437 21q-3 0 -6 2l-75 54q-8 6 -2 14.5t15 2.5l75 -53q8 -7 2 -15q-3 -5 -9 -5zM416 -64q-4 0 -7.5 3t-3.5 8v32h-42v-32q0 -5 -3.5 -8t-7.5 -3
t-7.5 3t-3.5 8v42q0 5 3.5 8t7.5 3h64q4 0 7.5 -3t3.5 -8v-42q0 -5 -3.5 -8t-7.5 -3z" />
    <glyph glyph-name="arrow-left" unicode="&#xf106;" 
d="M129 181q-5 0 -8 4q-7 7 1 15l254 245q7 7 14.5 -0.5t-0.5 -14.5l-254 -246q-3 -3 -7 -3zM383 -64q-4 0 -7 3l-254 245q-8 8 -0.5 15.5t14.5 0.5l254 -246q8 -7 1 -15q-4 -3 -8 -3z" />
    <glyph glyph-name="arrow-right" unicode="&#xf107;" 
d="M383 181q-4 0 -7 3l-254 246q-8 7 -0.5 14.5t14.5 0.5l254 -245q8 -8 1 -15q-3 -4 -8 -4zM129 -64q-4 0 -8 3q-7 8 1 15l254 246q7 7 14.5 -0.5t-0.5 -15.5l-254 -245q-3 -3 -7 -3z" />
    <glyph glyph-name="business" unicode="&#xf108;" 
d="M463 -11h-414q-17 0 -28.5 12t-11.5 29v243q0 17 11.5 29t28.5 12h414q17 0 28.5 -12t11.5 -29v-243q0 -17 -11.5 -29t-28.5 -12zM49 298q-10 0 -17 -7.5t-7 -17.5v-243q0 -4 1 -7.5t3 -6.5t5 -5.5t7 -4t8 -1.5h414q6 0 12 3.5t9 9t3 12.5v243q0 10 -7 17.5t-17 7.5h-414
zM260 135q-17 0 -29.5 13t-12.5 30.5t12.5 30t30 12.5t30 -12.5t12.5 -30.5q-1 -18 -13.5 -30.5t-29.5 -12.5zM260.5 204q-10.5 0 -18 -7.5t-7.5 -18t7.5 -18t17.5 -7.5q7 0 13 3t9.5 9t3.5 13q0 11 -7.5 18.5t-18 7.5zM223 175q-21 2 -43.5 9.5t-41.5 17.5t-36 21t-31 22.5
t-24 20t-16.5 15t-7.5 6.5l12 11l11.5 -11.5t27 -23t43 -31.5t51 -26t57.5 -16zM289 173l-2 16q27 3 57.5 16t51 25.5t43 31.5t27 23.5l11.5 11.5l12 -11l-12.5 -12.5t-29.5 -26t-43 -31.5t-54.5 -27.5t-60.5 -15.5zM377 305h-16v63q0 6 -3.5 12t-9 9.5t-12.5 3.5h-153
q-9 0 -16.5 -7.5t-7.5 -17.5v-63h-16v63q0 17 12 29t28 12h154q17 0 29 -12t12 -29v-63h-1zM338 305h-16v44q0 8 -8 8h-113q-9 0 -9 -8v-44h-16v44q0 10 7 17t18 7h114q6 0 11.5 -3t9 -8.5t3.5 -12.5v-44h-1z" />
    <glyph glyph-name="close" unicode="&#xf109;" 
d="M256 441q103 0 176 -73t73 -176t-73 -176t-176 -73t-176 73t-73 176t73 176t176 73zM256 -37q95 0 162 67t67 162t-67 162t-162 67t-162 -67t-67 -162t67 -162t162 -67zM369 291l-99 -99l99 -98l-15 -14l-98 98l-98 -98l-14 14l98 98l-98 98l14 15l98 -99l98 99z" />
    <glyph glyph-name="communication" unicode="&#xf10a;" 
d="M383 -43q2 -6 -1 -12t-9 -8q-2 -1 -5 -1q-12 0 -15 11l-18 53h-158l-18 -53q-2 -6 -8 -9t-12 -1t-9 8t-1 12l103 310q-8 9 -8 21q0 13 9.5 22.5t22.5 9.5t22.5 -9.5t9.5 -22.5q0 -12 -8 -21zM230 160l-16 -48h84l-16 48h-52zM271 192l-15 45l-15 -45h30zM188 32h136
l-16 48h-104zM192 282q1 -10 5 -19l-13 -39q-24 28 -24 64q0 40 28 68t68 28t68 -28t28 -68q0 -36 -24 -64l-13 39q4 9 5 19v6q0 26 -19 45t-45 19t-45 -19t-19 -45v-6zM128 288q0 -59 45 -97l-11 -33q-30 23 -48 57t-18 73q0 66 47 113t113 47t113 -47t47 -113
q0 -39 -18 -73t-48 -57l-11 33q45 38 45 97q0 53 -37.5 90.5t-90.5 37.5t-90.5 -37.5t-37.5 -90.5z" />
    <glyph glyph-name="complaints" unicode="&#xf10b;" 
d="M280 192v-8h40v-40v-16l13 10l64 46h48q17 0 30 13.5t13 30.5v141q0 11 -6.5 20.5t-16.5 14t-20 4.5h-204q-8 0 -15.5 -3t-13 -8t-9 -12.5t-3.5 -15.5v-25h8h8v25q0 5 2 9t5.5 7.5t8 5t9.5 1.5h204q4 0 8 -1t7.5 -3.5t6 -5t4 -6t1.5 -7.5v-141q0 -10 -9 -19t-18 -9h-51
h-2l-2 -2l-54 -38v32v8h-8h-48v-8zM357 -18h8q0 82 -29 89l-86 23l-4 1l-4 -3l-48 -49l-47 49l-3 3l-4 -1q-69 -17 -89 -22q-29 -9 -29 -89h8h8q0 26 5 48.5t13 24.5q17 5 83 22l50 -52l5 -6l6 6l50 51q64 -17 82 -22q8 -1 12.5 -23.5t4.5 -49.5h8zM254 266q5 -22 -2.5 -54
t-17.5 -49q-11 -16 -19 -21.5t-18 -5.5q-21 0 -40 25q-11 13 -19.5 43.5t-5.5 56.5q6 48 61 48q52 0 61 -43zM234 163zM269 270q-4 22 -20 35t-29.5 16.5t-26.5 3.5q-69 0 -77 -62q-4 -30 5.5 -63t22.5 -49q24 -31 53 -31q26 0 50 34h1q12 20 19.5 54.5t1.5 61.5zM315 325
l8 -3q3 16 23 16q10 0 16 -6.5t6 -13.5q0 -11 -8.5 -17t-16.5 -7h-7v-8v-22h8h8v16q32 11 32 38q0 8 -4.5 16.5t-13.5 14t-20 5.5q-7 0 -12.5 -1.5t-9 -4t-6.5 -5.5t-5 -5.5t-3.5 -5t-1.5 -3.5v-2zM336 237q0 8 8 8t8 -8t-8 -8t-8 8zM344 245q8 0 8 -8t-8 -8t-8 8t8 8z" />
    <glyph glyph-name="contact" unicode="&#xf10c;" 
d="M128.5 439q47.5 0 81 -33.5t33.5 -81.5v-26q0 -10 -5 -18t-13 -13t-17 -5q-24 0 -33 22q-18 -22 -47 -22q-25 0 -43.5 18.5t-18.5 43.5q0 17 8.5 31t22.5 22.5t31 8.5t31 -8.5t22.5 -22.5t8.5 -31v-26q0 -8 5 -13t12.5 -5t13 5t5.5 13v26q0 41 -29 69.5t-69 28.5
q-26 0 -48.5 -13t-36 -35.5t-13.5 -49.5q0 -40 29 -68.5t69 -28.5q9 0 9 -9t-9 -9q-47 0 -81 34t-34 81.5t34 81t81.5 33.5zM128 280q9 0 17.5 3.5t14.5 9.5t9.5 14t3.5 17q0 12 -6 22.5t-16.5 16.5t-22.5 6q-18 0 -31 -13t-13 -31.5t13 -31.5t31 -13zM348 349
q43 0 73.5 -30.5t30.5 -73.5q0 -9 -8.5 -9t-8.5 9q0 17 -7 33.5t-19 28t-28 18.5t-33 7q-36 0 -62 -25.5t-26 -61.5t26 -61.5t62 -25.5q31 0 55 19l-11 11q-4 -2 -9 -2h-3q-7 0 -18 5q-17 9 -34 25q-5 5 -13 14q-17 16 -25 34q-5 10 -6 17q0 9 3 12q5 7 8 11q5 5 12 5
q4 0 7 -2q12 -6 19 -17q3 -6 2 -12q-1 -5 -5 -11q-3 -4 0 -9q12 -15 27 -26q2 -2 5 -2q2 0 4 1q5 4 10 5q2 1 4 1q4 0 8 -3q12 -6 18 -18q5 -9 -1 -17l16 -16q7 -6 1 -12q-31 -31 -74.5 -31t-74 30.5t-30.5 74.5q0 21 8 40.5t22.5 33.5t33.5 22t41 8zM348 349z" />
    <glyph glyph-name="date" unicode="&#xf10d;" 
d="M469 400q18 0 30.5 -12.5t12.5 -30.5v-378q0 -12 -5.5 -22t-15.5 -15.5t-22 -5.5h-426q-18 0 -30.5 12.5t-12.5 30.5v378q0 18 12.5 30.5t30.5 12.5h69v32q0 7 4.5 11.5t11.5 4.5t11.5 -4.5t4.5 -11.5v-32h96v32q0 7 4.5 11.5t11.5 4.5t11.5 -4.5t4.5 -11.5v-32h96v32
q0 7 4.5 11.5t11.5 4.5t11.5 -4.5t4.5 -11.5v-32h69zM480 -21v378q0 5 -3 8t-8 3h-69v-32q0 -7 -4.5 -11.5t-11.5 -4.5t-11.5 4.5t-4.5 11.5v32h-96v-32q0 -7 -4.5 -11.5t-11.5 -4.5t-11.5 4.5t-4.5 11.5v32h-96v-32q0 -7 -4.5 -11.5t-11.5 -4.5t-11.5 4.5t-4.5 11.5v32h-69
q-5 0 -8 -3t-3 -8v-378q0 -5 3 -8t8 -3h426q5 0 8 3t3 8zM112 208v48h64v-48h-64zM112 128v48h64v-48h-64zM112 48v48h64v-48h-64zM224 48v48h64v-48h-64zM224 128v48h64v-48h-64zM224 208v48h64v-48h-64zM336 48v48h64v-48h-64zM336 128v48h64v-48h-64zM336 208v48h64v-48
h-64z" />
    <glyph glyph-name="deaf" unicode="&#xf10e;" 
d="M254 330q64 2 102 -49q19 -26 25.5 -59t-3.5 -60q-12 -37 -59 -82q-31 -30 -33 -44q-6 -85 -76 -88h-4q-56 0 -69 62q-1 6 2 10.5t8.5 6t10.5 -2t6 -8.5q8 -41 42 -41q25 1 38 15.5t15 47.5q1 11 7.5 23t13.5 19l20 20q42 40 52 71q7 20 2 46.5t-20 47.5q-30 39 -78.5 37
t-78.5 -45q-7 -9 -12 -20.5t-6.5 -17l-1.5 -5.5q-3 -14 -16.5 -10.5t-10.5 16.5q4 16 12.5 32.5t23 34.5t38 30t50.5 13zM220 106q23 7 21 35q-1 18 -10 25q-14 10 -38 3q-5 -1 -9.5 2t-3.5 8q3 26 8 40q16 43 51 50q34 7 55.5 -13t28.5 -45q3 -10 -7 -12.5t-12 7.5
q-1 2 -2.5 6t-6.5 12.5t-11 14.5t-17 9.5t-24 1.5q-32 -7 -41 -59q25 2 40 -9q18 -13 19 -40q1 -22 -9.5 -36.5t-25.5 -18.5q-6 -2 -13 -3q-24 -1 -37 20q-6 8 2.5 13.5t13.5 -2.5q10 -15 28 -9zM380 278q-14 26 -37 46l115 112l41 -42zM137 118q6 -33 34 -49l-121 -120
l-41 41z" />
    <glyph glyph-name="education" unicode="&#xf10f;" 
d="M502 237q10 -5 10 -14t-10 -15l-94 -47v-54q0 -32 -45.5 -56t-106.5 -24t-106.5 24t-45.5 56v54l-40 20v-37l24 -95q1 -5 -3 -8q-12 -10 -29 -10t-29 10q-4 3 -3 8l24 95v45l-38 19q-10 6 -10 15t10 14l228 116q18 10 36 0zM56 47q8 0 15 3l-15 60l-15 -60q7 -3 15 -3z
M392 107v45l-118 -60q-8 -4 -18 -4t-18 4l-118 60v-45q0 -23 40.5 -43.5t95.5 -20.5q37 0 69 10t49.5 24.5t17.5 29.5zM494 223h1h-1l-227 116q-4 2 -11 2t-11 -2l-227 -116h-1h1l39 -21l177 35q6 10 22 10q10 0 17 -5t7 -11q0 -5 -3 -8.5t-8.5 -5.5t-12.5 -2q-12 0 -19 6
l-157 -30l165 -84q4 -3 11 -3t11 3z" />
    <glyph glyph-name="empty-heart" unicode="&#xf110;" 
d="M467 364q45 -45 45 -107.5t-45 -107.5l-177 -175q-14 -14 -34 -14t-34 14q-4 3 -9.5 9t-22.5 22.5t-32.5 32t-35.5 35t-35 34.5l-27 27l-15 15q-45 45 -45 107.5t45 107.5q43 43 104.5 44t106.5 -40q45 41 106.5 40t104.5 -44zM444 172q36 35 36 84.5t-36 84.5
q-34 34 -82 35t-84 -31l-22 -20l-22 20q-36 32 -84 31t-82 -35q-36 -35 -36 -84.5t36 -84.5l177 -175q11 -12 22 0zM148 328q8 0 8 -8t-8 -8q-21 0 -36.5 -15t-15.5 -37q0 -8 -8 -8t-8 8q0 28 20 48t48 20z" />
    <glyph glyph-name="eservice" unicode="&#xf111;" 
d="M424 125q-13 -43 -45 -74q-51 -51 -131 -51q-82 0 -144 61l-40 -41q-7 -7 -15.5 -3t-8.5 13v164q0 6 4 10t10 4h164q10 0 13.5 -8.5t-3.5 -15.5l-39 -39q36 -36 78 -52t78.5 -11t61.5 30q7 7 12 15q1 2 3.5 1t1.5 -3zM89.5 256q-2.5 1 -1.5 3q13 43 45 74q51 51 131 51
q82 0 144 -61l40 41q7 6 15.5 2.5t8.5 -12.5v-164q0 -6 -4 -10t-10 -4h-164q-9 0 -13 8.5t3 15.5l39 39q-36 36 -78 52t-78.5 11t-61.5 -30q-7 -7 -12 -15q-1 -2 -3.5 -1z" />
    <glyph glyph-name="facebook" unicode="&#xf112;" 
d="M294 278h79l-9 -86h-69v-251h-104v251h-52v87h51v52q0 55 26.5 83.5t86.5 28.5h69v-87h-43q-13 0 -19 -2q-7 -1 -11 -7q-3 -4 -4 -10q-1 -8 -1 -15v-44z" />
    <glyph glyph-name="fastresponse" unicode="&#xf113;" 
d="M504 256v-160q0 -26 -19 -45t-45 -19q-5 -19 13 -50l2 -4q2 -3 0 -7q-1 -3 -4 -3q-5 0 -10 1q-65 15 -81 63h-144q-20 0 -37 12q21 16 37 36h144q36 0 58 22t22 58v160q26 0 45 -19t19 -45zM408 352v-176q0 -26 -19 -45t-45 -19h-144q-21 -32 -54 -53t-53 -25
q-8 -2 -14 -2q-4 0 -6 4.5t0 8.5l3 6q22 38 22 61h-26q-26 0 -45 19t-19 45v176q0 26 19 45t45 19h272q26 0 45 -19t19 -45zM85 264q0 -11 8 -19t19 -8t19 8t8 19t-8 19t-19 8t-19 -8t-8 -19zM235 264q0 11 -8 19t-19 8t-19 -8t-8 -19t8 -19t19 -8t19 8t8 19zM331 264
q0 11 -8 19t-19 8t-19 -8t-8 -19t8 -19t19 -8t19 8t8 19z" />
    <glyph glyph-name="fave" unicode="&#xf114;" 
d="M250 -28q-13 14 -46 36t-65.5 45t-65 54t-53 74.5t-20.5 93.5q0 48 40 94.5t99 46.5q73 0 117 -64q17 28 47.5 46t69.5 18q59 0 99 -46t40 -95q0 -63 -36 -121q-32 21 -69 21q-49 0 -84 -35t-35 -85q0 -27 13 -53q-30 -21 -39 -30q-4 -5 -6 -5t-6 5zM79 273q0 19 15 33
t34 14q7 0 12 4.5t5 12.5q0 4 -2 8t-6 6.5t-9 2.5q-33 0 -57 -23.5t-24 -55.5q0 -9 5 -14t12 -5q15 0 15 17zM303 55.5q0 43.5 30.5 74t74 30.5t74 -30.5t30.5 -74t-30.5 -74t-74 -30.5t-74 30.5t-30.5 74zM414 2l64 79q4 8 -2 11q-8 4 -11 -2l-58 -73l-42 41q-2 1 -5.5 1
t-5 -1.5t-1.5 -5t1 -5.5l49 -47q9 0 11 2z" />
    <glyph glyph-name="fave2" unicode="&#xf115;" 
d="M250 -28q-13 14 -46 36t-65.5 45t-65 54t-53 74.5t-20.5 93.5q0 48 40 94.5t99 46.5q73 0 117 -64q17 28 47.5 46t69.5 18q59 0 99 -46t40 -95q0 -50 -20 -94t-53 -75t-65 -54t-65.5 -45t-46.5 -35q-4 -5 -6 -5t-6 5zM79 273q0 19 15 33t34 14q7 0 12 4.5t5 12.5
q0 4 -2 8t-6 6.5t-9 2.5q-33 0 -57 -23.5t-24 -55.5q0 -9 5 -14t12 -5q15 0 15 17z" />
    <glyph glyph-name="field-hide" unicode="&#xf116;" 
d="M327.5 251q-15.5 -22 -40.5 -32l54 97q2 -9 2 -16q0 -27 -15.5 -49zM335 384q-20 -36 -60.5 -109t-61.5 -110l-9 -17q-2 -3 -6 -3q-2 0 -25 14q-4 2 -4 5q0 2 9 17q-28 12 -51 33t-40 48q-4 6 -4 13t4 13q29 46 73 72t96 26q17 0 35 -3l10 19q2 3 6 3q1 0 3.5 -1.5t6 -3
t6 -3.5t6 -3.5t3.5 -2.5q3 -2 3 -5v-2zM190 203l15 27q-17 12 -26.5 30.5t-9.5 39.5q0 23 12 43q-44 -22 -73 -68q32 -50 82 -72zM262.5 342.5q2.5 2.5 2.5 6.5t-2.5 6.5t-6.5 2.5q-24 0 -41.5 -17t-17.5 -41q0 -4 3 -7t6.5 -3t6.5 3t3 7q0 16 11.5 28t28.5 12q4 0 6.5 2.5z
M425 288q4 -6 4 -13t-4 -13q-7 -13 -21 -28q-29 -34 -67 -52t-81 -18l14 25q41 4 76 27t58 59q-22 35 -54 57l12 21q18 -12 35 -29t28 -36z" />
    <glyph glyph-name="field-unhide" unicode="&#xf117;" 
d="M425 288q4 -6 4 -13t-4 -13q-27 -45 -72.5 -71.5t-96.5 -26.5t-96.5 26.5t-72.5 71.5q-4 6 -4 13t4 13q27 45 72.5 71.5t96.5 26.5t96.5 -26.5t72.5 -71.5zM214.5 341q-17.5 -17 -17.5 -41q0 -4 3 -7t6.5 -3t6.5 3t3 7q0 16 11.5 28t28.5 12q4 0 6.5 2.5t2.5 6.5
t-2.5 6.5t-6.5 2.5q-24 0 -41.5 -17zM340 211.5q39 23.5 64 63.5q-29 46 -73 68q12 -20 12 -43q0 -36 -25.5 -61.5t-61.5 -25.5t-61.5 25.5t-25.5 61.5q0 23 12 43q-44 -22 -73 -68q25 -40 64 -63.5t84 -23.5t84 23.5z" />
    <glyph glyph-name="full-heart" unicode="&#xf118;" 
d="M474 181l-218 -224l-218 224q-38 39 -38 93.5t37.5 93t90.5 38.5q22 0 54 -16t53 -32l21 -17q9 8 23.5 18.5t47.5 28.5t54 18q55 1 93 -39q38 -38 38 -92.5t-38 -93.5z" />
    <glyph glyph-name="googleplay" unicode="&#xf119;" 
d="M365 292l-82 -82l-230 229q21 8 43 -3zM466 238q27 -14 27 -46t-27 -47l-78 -41l-88 88l88 88zM32 425l234 -234l-234 -233q-13 15 -13 35v397q0 20 13 35zM53 -55l230 229l83 -82l-270 -144q-22 -11 -43 -3z" />
    <glyph glyph-name="handdrawn" unicode="&#xf11a;" 
d="M0 43q0 32 75 54t181 22t181 -22t75 -54t-75 -54t-181 -22t-181 22t-75 54zM234 305q1 2 3 5t6.5 9.5t6.5 9.5q24 36 28 41q1 1 2 3q2 3 6 18q7 30 20 44q14 14 31 13q25 -2 42 -35q11 -18 13 -34q5 -28 -5 -62q34 -4 56 -17q23 -15 27 -37.5t-9 -42.5q7 -14 6 -30
q-1 -10 -4 -18q19 -19 13 -43q-9 -35 -62 -59q-42 -19 -89 -12t-82 38q-7 -11 -17 -17q-12 -8 -28.5 -12t-25.5 -4t-33.5 1.5t-27.5 1.5q-13 0 -21.5 8.5t-10.5 20.5q-1 2 -1 7q-1 7 -3.5 19.5t-4 21.5t-3 22t-2 23.5t-0.5 22.5t2 22t5.5 20t10 18.5t14.5 15.5
q26 21 66 27.5t71 -9.5zM236 270q8 -14 5 -60q-1 -43 -8 -78q-3 -14 -10.5 -23.5t-15.5 -13.5t-22.5 -6t-23 -1.5t-26.5 1.5t-23 1q-10 0 -8 11q-2 1 -2 4q-1 4 -5.5 29.5t-5.5 39t-1.5 34.5t5.5 36t17 24q15 12 39 19.5t49.5 4t35.5 -21.5zM429 166q28 -12 23 -31
q-6 -24 -48 -42q-39 -19 -83.5 -9.5t-72.5 42.5q-3 2 -3 5v4q7 142 7 150q0 4 3 7q1 3 2 4q2 3 6.5 9.5t6.5 9.5q4 5 9 13t10 15t9 13q6 8 11.5 30.5t14.5 31.5q8 8 15.5 4.5t14 -13t10 -19.5t4.5 -15q3 -18 -2 -41t-15 -39q54 -1 79 -16q18 -13 16.5 -28.5t-17.5 -29.5
q14 -9 14 -30q-1 -13 -14 -25z" />
    <glyph glyph-name="health" unicode="&#xf11b;" 
d="M67 226q-8 0 -10 8q-4 15 -4 30q0 46 32 79t76 33q33 0 58.5 -15.5t38.5 -41.5q8 17 22.5 30t33.5 20t41 7q45 0 76.5 -33t31.5 -79q0 -15 -4 -30q-2 -10 -12 -7.5t-8 12.5q3 12 3 25q0 38 -25.5 65t-61.5 27q-37 0 -61.5 -23.5t-25.5 -59.5q0 -10 -10 -10t-10 10
q-1 36 -25.5 59.5t-61.5 23.5q-36 0 -61.5 -27t-25.5 -65q0 -13 3 -25q2 -10 -8 -13h-2zM391 170q7 7 14 -0.5t0 -14.5l-140 -139q-3 -3 -7 -3t-7 3l-139 138q-7 8 0 15t14 0l132 -131zM489 210q5 -3 5 -11q0 -4 -2 -7t-5 -5t-7 -2q-6 0 -10 4h-146q-4 -3 -8 -3l-44 -59v-2
q0 -3 -1 -5.5t-3 -4.5t-4.5 -3t-5.5 -1q-6 0 -10 4t-4 10q0 2 1 4l-63 125l-45 -60q-3 -5 -8 -5h-92q-5 -4 -10.5 -4t-9.5 4t-4 10t4 10t10 4q5 0 8 -3h88l47 62v1q0 6 4 10t10 4t10 -4t4 -10q0 -1 -1 -3l63 -125l40 53v1q0 6 4 10t10 4q4 0 8 -3h150q3 3 8 3t9 -3v0z" />
    <glyph glyph-name="hierarchy" unicode="&#xf11c;" 
d="M472 3h-202q-10 0 -16.5 6.5t-6.5 16.5v37q0 9 6.5 16t16.5 7h202q10 0 16.5 -7t6.5 -16v-37q0 -10 -6.5 -16.5t-16.5 -6.5zM270 69q-5 0 -5 -5v-38q0 -6 5 -6h202q5 0 5 6v37q0 5 -5 5h-202v1zM230 42h-50q-9 0 -16 7t-7 16v153h17v-43h56v-16h-55v-92q0 -6 5 -6h50v-19
zM472 118h-202q-10 0 -16.5 6.5t-6.5 16.5v37q0 10 6.5 16.5t16.5 6.5h202q10 0 16.5 -6.5t6.5 -16.5v-37q0 -10 -6.5 -16.5t-16.5 -6.5zM270 184q-5 0 -5 -5v-38q0 -5 5 -5h202q5 0 5 5v37q0 5 -5 5h-202v1zM357 233h-202q-10 0 -16.5 6.5t-6.5 16.5v37q0 10 6.5 16.5
t16.5 6.5h202q10 0 16.5 -6.5t6.5 -16.5v-37q0 -10 -6.5 -16.5t-16.5 -6.5zM155 298q-5 0 -5 -5v-37q0 -5 5 -5h202q5 0 5 5v37q0 5 -5 5h-202zM115 271h-50q-9 0 -16 7t-7 16v39h17v-39q0 -5 5 -5h51v-18zM242 348h-202q-10 0 -16.5 7t-6.5 16v37q0 10 6.5 16.5t16.5 6.5
h202q10 0 16.5 -6.5t6.5 -16.5v-37q0 -9 -6.5 -16t-16.5 -7zM40 413q-5 0 -5 -5v-37q0 -5 5 -5h202q5 0 5 5v37q0 5 -5 5h-202z" />
    <glyph glyph-name="home" unicode="&#xf11d;" 
d="M95 225l6 -8l156 112l154 -112l6 8l6 8l-160 117l-6 4l-6 -4l-162 -117zM211 52h10v99q13 16 32 16t31 -16v-99h10h10v102v3l-1 2q-17 28 -50 28t-51 -28l-1 -2v-3v-102h10zM154 276h10v56h17v-33h10h10v43v10h-10h-37h-10v-10v-66h10zM395 241h-10v-171q0 -8 -5 -13
t-12 -5h-224q-7 0 -12 5t-5 13v171h-10h-10v-171q0 -16 11 -27t26 -11h224q15 0 26 11t11 27v171h-10z" />
    <glyph glyph-name="idea" unicode="&#xf11e;" 
d="M280 307q4 -2 9.5 -5.5t14.5 -14.5t10 -24q0 -7 -6 -8h-1q-6 0 -7 7q-2 21 -25 32q-6 3 -3.5 9.5t8.5 3.5zM256 448q106 0 181 -75t75 -181t-75 -181t-181 -75t-181 75t-75 181t75 181t181 75zM225 64q2 -2 4.5 -5t9 -7.5t13.5 -5.5t16.5 3t18.5 15h-3h-59zM284 73
q6 0 10.5 4t4.5 10h-86q0 -4 2 -7t5.5 -5t7.5 -2h56zM298 90q7 0 7 6.5t-7 6.5h-84q-7 0 -7 -6.5t7 -6.5h84zM207 128q0 -7 7 -7h84q7 0 7 7t-7 7h-84q-7 0 -7 -7zM298 105q7 0 7 7t-7 7h-84q-7 0 -7 -7t7 -7h84zM334 208q24 40 3 81q-17 33 -53 44.5t-69 -5.5
q-45 -23 -49 -73q-2 -23 12 -47q3 -4 9 -13.5t9 -13.5q11 -20 14 -39h92q0 2 1 4v0q3 17 12 32q3 6 9.5 16t9.5 14z" />
    <glyph glyph-name="identity" unicode="&#xf11f;" 
d="M61 260q-1 0 -2 1q-23 25 -23 59q0 36 25.5 61.5t61.5 25.5t61 -25.5t25 -61.5t-25 -61.5t-61 -25.5q-37 0 -62 27zM123 243q28 0 49 18q-27 10 -34 23q-7 -3 -15 -3h-1q-8 0 -15 3q-7 -14 -34 -23q22 -18 50 -18zM95 336q0 -2 -0.5 -7.5t2 -15t7.5 -14.5q6 -8 18 -8
t19 8q5 5 7 15t1.5 15t-0.5 7q0 12 -6 19t-10.5 8.5t-9.5 1.5h-2q-3 0 -6.5 -1t-8 -3.5t-8 -9t-3.5 -15.5zM123 397q-32 0 -54.5 -22.5t-22.5 -54.5q0 -29 19 -51q30 9 34 20l-3 3q-14 16 -11 45q1 19 11.5 28.5t24.5 9.5h2q14 0 24.5 -9.5t11.5 -28.5q3 -29 -11 -45l-2 -2
h1q0 -1 1 -3t9.5 -7.5t22.5 -10.5q20 22 20 51q0 32 -22.5 54.5t-54.5 22.5zM123 397zM300 257q7 0 7 -6.5t-7 -6.5h-65q-6 0 -6 6.5t6 6.5h65zM300 257zM287 308q6 0 6 -6.5t-6 -6.5h-30q-7 0 -7 6.5t7 6.5h30zM287 308zM504 297q1 -28 -10 -62q-9 -29 -26 -51
q-22 -28 -54 -44l-3 -1l-3 1q-33 16 -55 44q-17 22 -26 51q-10 33 -9 62v6l6 1q30 3 59 18q14 8 23 16l5 4l4 -4q10 -8 24 -16q29 -15 58 -18l7 -1v-6zM411 155q27 14 45 38q16 20 24 47q8 25 9 50q-15 2 -29.5 7t-28.5 13q-11 6 -20 13q-10 -7 -21 -13q-14 -8 -28.5 -13
t-29.5 -7q1 -26 9 -51q9 -26 24 -46q18 -24 46 -38zM411 155zM451 274l10 -11l-59 -59l-32 33l5 5l5 5l3 -3l19 -19l39 38zM451 274zM409 448q6 0 6 -7v-36v-14v-26q0 -7 -6.5 -7t-6.5 7v26v14v30h-389v-230h213h54h35q7 0 7 -6.5t-7 -6.5h-35h-54h-219q-7 0 -7 6v243
q0 7 7 7h402zM351 357q7 0 7 -6.5t-7 -6.5h-94q-7 0 -7 6.5t7 6.5h94zM351 357z" />
    <glyph glyph-name="information" unicode="&#xf120;" 
d="M389 400q64 0 123 -30v-386q-6 3 -17.5 8t-46 13.5t-67.5 8.5q-66 0 -125 -30q-61 30 -125 30q-33 0 -66 -7.5t-49 -14.5l-16 -8v386q59 30 123 30q34 0 67.5 -7.5t49.5 -15.5l16 -7q6 3 17.5 8t46.5 13.5t69 8.5zM32 30q51 16 99 16q54 0 109 -20v315q-10 9 -53 19v-157
l-49 48l-55 -48v160q-19 -2 -51 -14v-319zM480 30v319q-43 19 -91 19q-66 0 -117 -26v-316q51 20 109 20q48 0 99 -16z" />
    <glyph glyph-name="instagram3" unicode="&#xf121;" 
d="M393 412q11 -11 11 -27v-220q0 -16 -11 -27t-27 -11h-220q-16 0 -27 11t-11 27v220q0 16 11 27t27 11h220q16 0 27 -11zM214.5 316q-17.5 -17 -17.5 -40.5t17.5 -40.5t42 -17t42 17t17.5 40.5t-17.5 40.5t-42 17t-42 -17zM371 173v125h-26q4 -12 4 -26q0 -24 -12.5 -44.5
t-34 -32.5t-46.5 -12q-38 0 -65 26t-27 63q0 14 4 26h-27v-125q0 -5 3 -8.5t8 -3.5h207q5 0 8.5 3.5t3.5 8.5zM371 345v32q0 5 -4 9t-10 4h-33q-6 0 -10 -4t-4 -9v-32q0 -6 4 -9.5t10 -3.5h33q6 0 10 3.5t4 9.5z" />
    <glyph glyph-name="justice" unicode="&#xf122;" 
d="M160 105q0 13 -39.5 18.5t-79 0t-39.5 -18.5q0 -12 12 -20.5t29.5 -12t37.5 -3.5q32 0 55.5 9t23.5 27zM143 102q-13 -17 -62 -17q-23 0 -40.5 6t-22.5 11q20 6 65 6t60 -6zM510 105q0 8 -16.5 13.5t-40 7t-47 0t-39.5 -7t-16 -13.5q0 -18 23.5 -27t55.5 -9t56 9t24 27z
M493 102q-14 -17 -63 -17q-23 0 -40.5 6t-21.5 11q20 6 64.5 6t60.5 -6zM183 20q4 5 20.5 10.5t36.5 6.5l8 1v285l-8 1q-23 0 -45 4.5t-34 8.5t-30.5 12t-23.5 10l-10 4h151v24q0 15 8 36q7 -21 7 -36v-24h151l-10 -4q-6 -2 -16 -6.5t-17.5 -7.5t-19.5 -7.5t-23 -7t-26 -4.5
t-31 -2l-8 -1v-285l8 -1q44 -2 58 -18v-13h35q3 0 3 -3v-26q0 -3 -3 -3h-32q-3 0 -3 3v14h-147v-14q0 -3 -3 -3h-32q-3 0 -3 3v26q0 3 3 3h35zM414 363zM414 363h16q4 0 8 -2t6 -5.5t2 -8.5q0 -6 -4.5 -11t-11 -5t-11.5 5t-5 11v3v13zM97 363zM97 363v-16q0 -6 -5 -11
t-11.5 -5t-11 5t-4.5 11.5t4.5 11t11.5 4.5h16zM430 379h-151v8q0 6 -1 17t-7 24.5t-15.5 13.5t-15.5 -13.5t-7 -24.5t-1 -17v-8h-151q-13 0 -22.5 -9.5t-9.5 -22.5t9.5 -22.5t22.5 -9.5q23 0 31 25q69 -30 120 -32v-255q-27 -3 -45.5 -11.5t-20.5 -19.5h-19
q-8 0 -13.5 -5.5t-5.5 -13.5v-26q0 -8 5.5 -13.5t13.5 -5.5h32q15 0 19 17h115q4 -17 19 -17h32q8 0 13.5 5.5t5.5 13.5v26q0 8 -5.5 13.5t-13.5 5.5h-19q-5 25 -66 31v255q51 2 120 32q8 -25 31 -25q9 0 16 4.5t11.5 12t4.5 15.5q0 7 -2.5 12.5t-7 10t-10 7t-12.5 2.5z
M10 108l8 -2l63 192l64 -199l8 2l7 3l-71 222l-8 23l-8 -23l-71 -215zM359 108l8 -2l63 192l64 -199l8 2l8 3l-72 222l-8 23l-8 -23l-70 -215z" />
    <glyph glyph-name="keyboard13" unicode="&#xf123;" 
d="M434 379q7 -7 7 -18v-173q0 -10 -7 -17t-17 -7h-322q-10 0 -17 7t-7 17v173q0 11 7 18t17 7h322q10 0 17 -7zM417 188v173h-322v-173h322zM123 213q-3 0 -3 3v19q0 3 3 3h19q3 0 3 -3v-19q0 -3 -3 -3h-19zM123 263q-3 0 -3 3v18q0 3 3 3h43q3 0 3 -3v-18q0 -3 -3 -3h-43z
M123 312q-3 0 -3 3v19q0 3 3 3h19q3 0 3 -3v-19q0 -3 -3 -3h-19zM339 238q4 0 4 -3v-19q0 -3 -4 -3h-166q-4 0 -4 3v19q0 3 4 3h166zM194 266v18q0 3 3 3h19q3 0 3 -3v-18q0 -3 -3 -3h-19q-3 0 -3 3zM173 312q-4 0 -4 3v19q0 3 4 3h18q3 0 3 -3v-19q0 -3 -3 -3h-18zM244 266
v18q0 3 3 3h18q3 0 3 -3v-18q0 -3 -3 -3h-18q-3 0 -3 3zM222 312q-3 0 -3 3v19q0 3 3 3h19q3 0 3 -3v-19q0 -3 -3 -3h-19zM293 266v18q0 3 3 3h19q3 0 3 -3v-18q0 -3 -3 -3h-19q-3 0 -3 3zM389 238q3 0 3 -3v-19q0 -3 -3 -3h-19q-3 0 -3 3v19q0 3 3 3h19zM271 312q-3 0 -3 3
v19q0 3 3 3h19q3 0 3 -3v-19q0 -3 -3 -3h-19zM321 312q-3 0 -3 3v19q0 3 3 3h18q4 0 4 -3v-19q0 -3 -4 -3h-18zM343 266v18q0 3 3 3h21v47q0 3 3 3h19q3 0 3 -3v-68q0 -3 -3 -3h-43q-3 0 -3 3z" />
    <glyph glyph-name="lightning" unicode="&#xf124;" 
d="M395 254q20 0 28 -19t-7 -34l-246 -247q-9 -9 -22 -9q-10 0 -18 7q-10 7 -12 18t3 22l97 169h-101q-17 0 -26 15.5t0 30.5l123 216q9 15 27 15h154q18 0 27 -16t-2 -31l-91 -137h66zM148 -24l247 247h-95q-6 0 -10.5 4.5t-4.5 10.5l3 10l107 160h-154l-124 -216h128
q6 0 10.5 -4.5t4.5 -10.5v-4z" />
    <glyph glyph-name="login" unicode="&#xf125;" 
d="M441 233q10 0 10 -11q0 -10 -10 -10h-115l43 -44q7 -6 0 -13q-6 -8 -14 0l-57 57q-5 5 -5 11t5 10l57 57q7 8 14 0q8 -6 0 -14l-43 -43h115zM342 128q10 0 10 -10v-64q0 -13 -8.5 -21.5t-20.5 -8.5h-65v-38q0 -13 -10 -20q-5 -3 -12 -3q-4 0 -10 2l-157 60q-1 0 -1 0.5
v0.5h-1l-1 1l-1 1l-1 1l-0.5 0.5l-0.5 0.5v1l-1 1v1v2v379v1l1 1v1v1h1q0 1 1 1v1q1 0 1 1h1q0 1 1 1h1h1h1h1h251q12 0 20.5 -8.5t8.5 -20.5v-65q0 -10 -10 -10t-10 10v65q0 9 -9 9h-198l112 -43q9 -3 15 -11.5t6 -17.5v-175v-111h65q9 0 9 9v65q0 10 10 10zM238 155v175
q0 7 -8 10l-149 58v-358l151 -57q4 -2 5 -1q1 0 1 4v169z" />
    <glyph glyph-name="logout" unicode="&#xf126;" 
d="M304 213q-10 0 -10 11q0 9 10 9h115l-44 44q-7 6 0 14q7 7 14 0l57 -57q5 -5 5 -11t-5 -11l-57 -56q-6 -8 -14 0q-7 6 0 13l44 44h-115zM342 128q10 0 10 -10v-64q0 -13 -8.5 -21.5t-20.5 -8.5h-65v-38q0 -13 -10 -20q-5 -3 -12 -3q-4 0 -10 2l-157 60q-1 0 -1 0.5v0.5
h-1l-1 1l-1 1l-1 1l-0.5 0.5l-0.5 0.5v1l-1 1v1v2v379v1l1 1v1v1h1q0 1 1 1v1q1 0 1 1h1q0 1 1 1h1h1h1h1h251q12 0 20.5 -8.5t8.5 -20.5v-65q0 -10 -10 -10t-10 10v65q0 9 -9 9h-198l112 -43q9 -3 15 -11.5t6 -17.5v-175v-111h65q9 0 9 9v65q0 10 10 10zM238 155v175
q0 7 -8 10l-149 58v-358l151 -57q4 -2 5 -1q1 0 1 4v169z" />
    <glyph glyph-name="mail" unicode="&#xf127;" 
d="M491 374q13 -13 13 -31v-302q0 -18 -13 -31t-31 -13h-408q-18 0 -31 13t-13 31v302q0 18 12.5 31t31.5 13h408q18 0 31 -13zM469 41v213q-9 -10 -19 -18q-74 -57 -118 -94q-14 -12 -23 -18q-9 -7 -24 -14t-29 -7v0q-13 0 -29 7q-15 7 -24 14q-11 8 -23 18q-44 37 -118 94
q-10 8 -19 18v-213q0 -3 2.5 -6t6.5 -3h408q4 0 6.5 3t2.5 6zM469 336v3v4q0 4 -1 3.5t-1.5 2.5t-2.5 2t-4 1h-408q-4 0 -6.5 -3t-2.5 -6q0 -47 41 -79q38 -30 111 -88l1.5 -1t3.5 -3t5 -4q8 -7 12.5 -10.5t12 -8.5t14.5 -8q6 -2 12 -2v0q6 0 12 2q6 3 14 8q9 6 12 9
q4 2 13 10q2 2 4 3.5t3 2t2 1.5l1 1q52 42 111 88q15 12 28 32t13 37v3z" />
    <glyph glyph-name="mapbook" unicode="&#xf128;" 
d="M208 78q-15 0 -36.5 29t-38.5 67.5t-29.5 77.5t-12.5 59q0 48 34.5 82.5t83 34.5t82.5 -34.5t34 -82.5q0 -17 -7.5 -46t-20 -60.5t-27.5 -60.5t-31.5 -47.5t-30.5 -18.5zM115 311q0 -42 39 -128q13 -28 25.5 -48t19 -27t9.5 -7q5 0 13 9t19.5 28t23.5 45q38 84 38 128
q0 39 -27.5 66t-66.5 27t-66 -27t-27 -66zM280 308.5q0 -29.5 -21 -50.5t-51 -21q-14 0 -27.5 6t-23 15.5t-15 22.5t-5.5 28q0 29 21 50t50.5 21t50.5 -21t21 -50.5zM158 309q0 -21 14.5 -36t35.5 -15t36 15t15 36q0 14 -7 25.5t-18.5 18t-25.5 6.5q-21 0 -35.5 -14.5
t-14.5 -35.5zM484 -30q2 -6 -2.5 -10.5t-10.5 -2.5l-119 33l-89 -27q-2 -2 -5 -2q-2 -1 -4 0q-3 0 -5 2l-89 27l-119 -33q-1 -1 -3 -1q-4 0 -7 4q-5 4 -3 10l84 232l2 -7q5 -10 9 -20l1 -1l-17 -46l33 13l1 -2l8 -14l1 -3l-52 -21l-43 -119l96 27l12 93l4 -5q8 -10 13 -15
l1 -1l-10 -72l72 -23v104l2 1q13 15 16 20q6 9 12 19v1l48 16l-9 71v1q5 15 10 29l1 3l64 -23q5 -2 6 -7zM267 -14l73 23l-16 117l-57 -19v-121zM332 225l11 -79l61 -17l-29 81zM361 9l96 -27l-44 123l-67 18z" />
    <glyph glyph-name="municipality" unicode="&#xf129;" 
d="M492 319q4 -2 4 -7t-4 -7l-78 -59q-8 -6 -17 -6h-109v-32h68q11 0 19.5 -8.5t8.5 -19.5v-88q0 -11 -8.5 -19.5t-19.5 -8.5h-68v-85q18 32 64 37q-32 -24 -32 -64h-56q-1 5 -1.5 13.5t3.5 26.5t16 27q-20 -4 -32.5 -20.5t-15.5 -31.5l-2 -15h-40q0 39 -32 64q46 -5 64 -37
v85h-109q-9 0 -17 6l-78 59q-4 2 -4 7t4 7l78 59q8 6 17 6h109v32h-68q-11 0 -19.5 8.5t-8.5 19.5v88q0 11 8.5 19.5t19.5 8.5h68v32q0 7 4.5 11.5t11.5 4.5h32q7 0 11.5 -4.5t4.5 -11.5v-32h109q9 0 17 -6zM347 176h-230q-2 0 -3 -1l-48 -35q-2 -2 -2 -4t2 -4l48 -35
q1 -1 3 -1h230q5 0 5 5v70q0 5 -5 5zM446 308q2 2 2 4t-2 4l-48 35q-1 1 -3 1h-230q-5 0 -5 -5v-70q0 -5 5 -5h230q2 0 3 1z" />
    <glyph glyph-name="personalinfo" unicode="&#xf12a;" 
d="M459 0h-406q-17 0 -29.5 12.5t-12.5 30.5v224q0 17 12.5 29.5t29.5 12.5h160v43q0 18 12.5 30.5t30.5 12.5t30.5 -12.5t12.5 -30.5v-43h160q17 0 29.5 -12.5t12.5 -29.5v-224q0 -18 -12.5 -30.5t-29.5 -12.5zM181 80v8q13 7 22 15q2 2 4 5.5t3 6.5l1 3q2 15 2 39
q0 19 -10 32.5t-32 13.5v0q-22 0 -32.5 -13.5t-10.5 -32.5q0 -24 2 -39q3 -10 8 -15l22 -15v-8v-16q0 -10 -7.5 -15.5t-16.5 -5.5q-28 -1 -34 -11q-5 -8 -6 -11h149q-1 3 -6 11q-5 9 -34 11q-8 0 -16 5.5t-8 15.5v16zM277 352q0 9 -6 15t-15 6t-15 -6t-6 -15v-64q0 -9 6 -15
t15 -6t15 6t6 15v64zM480 267q0 8 -6.5 14.5t-14.5 6.5h-160q0 -18 -12.5 -30.5t-30.5 -12.5t-30.5 12.5t-12.5 30.5h-160q-8 0 -14.5 -6.5t-6.5 -14.5v-224q0 -9 6.5 -15.5t14.5 -6.5h20q5 15 12 24q2 3 5 6.5t16.5 8t31.5 4.5v3v5.5v2.5q-6 4 -11 9q-11 7 -15 28
q-5 32 -5 44q0 68 63 68h1q64 0 64 -68q0 -12 -5 -44q-4 -21 -16 -28q-5 -5 -11 -9v-7v-4q42 0 53 -19q7 -9 13 -24h190q5 0 10 3t8 8t3 11v224zM427 171h-128q-5 0 -8 3t-3 7.5t3 7.5t8 3h128q4 0 7 -3t3 -7.5t-3 -7.5t-7 -3zM299 128h21q4 0 7.5 -3t3.5 -7.5t-3.5 -7.5
t-7.5 -3h-21q-5 0 -8 3t-3 7.5t3 7.5t8 3zM299 85h64q4 0 7 -3t3 -7q0 -3 -1.5 -5.5t-3.5 -4t-5 -1.5h-64q-5 0 -8 3t-3 7.5t3 7.5t8 3zM341 117.5q0 4.5 3.5 7.5t7.5 3h43q4 0 7 -3t3 -7.5t-3 -7.5t-7 -3h-43q-4 0 -7.5 3t-3.5 7.5zM245 352h22v-21h-22v21z" />
    <glyph glyph-name="phone" unicode="&#xf12b;" 
d="M136 -25q-30 0 -46 15l-4.5 4.5l-3.5 3.5q-13 12 -19.5 19.5t-13.5 20.5t-6 26q1 28 35 56q40 32 67 32q11 0 21 -5t16 -10.5t16 -15.5l2 -2l3 -3q2 -2 6 -2q27 0 95 69q39 39 56 65q19 28 11 36l-5 5q-28 27 -30 46q-5 29 31 74q28 35 58 35q12 0 25 -7t20 -13.5
t18 -18.5q5 -4 9 -8q15 -16 15 -48q-1 -29 -15 -68q-33 -87 -118 -173q-66 -65 -135 -101q-61 -32 -108 -32zM145 130q-20 0 -54 -27q-27 -21 -27 -40q-1 -18 32 -49l9 -9q9 -9 31 -9q42 0 99 30q66 35 129 97q82 82 114 166q13 40 13 62t-9 30l-9 9q-31 33 -48 33
q-19 0 -42 -27q-30 -38 -27 -58q2 -12 24 -35q2 -1 4 -3l2 -2q19 -20 -8 -62q-18 -28 -59 -69q-75 -74 -110 -74q-13 0 -21 8q-3 2 -5 5q-24 24 -38 24zM11 -60h-4q-10 4 -6 14q15 47 69 75q10 5 14.5 -4.5t-5.5 -14.5q-5 -2 -12.5 -7t-23.5 -21.5t-22 -34.5q-3 -7 -10 -7z
" />
    <glyph glyph-name="private" unicode="&#xf12c;" 
d="M312 384q0 -20 -19 -34t-45 -14t-45 14q-16 -14 -39 -14q-19 0 -34 10q-10 -10 -26 -10q-13 0 -22.5 7t-9.5 17t9.5 17t22.5 7q4 0 9 -1q3 14 17.5 23.5t33.5 9.5q16 0 30 -7q18 23 54 23q26 0 45 -14t19 -34zM136 272h-96v32q0 7 4.5 11.5t11.5 4.5h64q7 0 11.5 -4.5
t4.5 -11.5v-32zM488 -26v-12q0 -10 -10 -10h-444q-10 0 -10 10v12q0 10 10 10h6v272h96v-80l103 79q3 2 6 0.5t3 -4.5v-75l103 79q3 2 6 0.5t3 -4.5v-75l103 79q3 2 6 0.5t3 -4.5v-75v-192h6q10 0 10 -10zM216 48h-48v-32h48v32zM216 112h-48v-32h48v32zM312 48h-48v-32h48
v32zM312 112h-48v-32h48v32zM408 48h-48v-32h48v32zM408 112h-48v-32h48v32z" />
    <glyph glyph-name="question23" unicode="&#xf12d;" 
d="M384.5 349q19.5 -34 19.5 -74t-19.5 -74.5t-54 -54t-74.5 -19.5t-74.5 19.5t-54 54t-19.5 74.5t19.5 74t54 54t74.5 20t74.5 -20t54 -54zM281 182v37q0 3 -2 5t-4 2h-38q-2 0 -4 -2t-2 -5v-37q0 -2 2 -4t4 -2h38q2 0 4 2t2 4zM327.5 296.5q2.5 7.5 2.5 15.5
q0 17 -10.5 31.5t-26.5 22.5t-33 8q-47 0 -72 -41q-3 -5 2 -8l25 -20q2 -1 4 -1q3 0 5 2q10 14 16 18q7 5 17 5q9 0 16.5 -5t7.5 -12t-4 -11.5t-13 -8.5q-12 -5 -22.5 -16.5t-10.5 -24.5v-7q0 -3 2 -4.5t4 -1.5h38q2 0 4 1.5t2 4.5q0 4 4 10t10 9q7 4 10 6t8.5 6.5t8.5 9
t5.5 12z" />
    <glyph glyph-name="rate" unicode="&#xf12e;" 
d="M508 37q10 -28 -4 -49q-13 -18 -37 -18q-11 0 -22 5l-61 23q-63 -42 -138 -42q-102 0 -174 72t-72 174t72 174t174 72q67 0 123.5 -33t89.5 -89.5t33 -123.5q0 -43 -14 -83zM467 3q17 0 9 22l-34 94q17 40 17 83q0 88 -62.5 150t-150.5 62q-58 0 -107 -28t-77 -77
t-28 -107t28 -107t77 -77.5t107 -28.5q75 0 133 47l78 -30q6 -3 10 -3zM314 202q0 11 8 19t19.5 8t19.5 -8t8 -19t-8 -19t-20 -8q-7 0 -13.5 3.5t-10 10t-3.5 13.5zM214 202q0 7 3.5 13.5t9.5 10t14 3.5q11 0 19 -8t8 -19t-8 -19t-19 -8t-19 8t-8 19zM113 202q0 11 8 19
t19.5 8t19.5 -8t8 -19t-8 -19t-20 -8q-7 0 -13.5 3.5t-10 10t-3.5 13.5z" />
    <glyph glyph-name="search" unicode="&#xf12f;" 
d="M495 8q11 -11 11 -27t-11.5 -27.5t-27.5 -11.5t-27 12l-103 102q-53 -37 -119 -37q-43 0 -82.5 16.5t-67.5 45t-45 68t-17 82t17 82t45 67.5t67.5 45t82 17t82 -16.5t68 -45t44.5 -67.5q17 -40 17 -83q0 -66 -37 -119zM312.5 135.5q39.5 39.5 39.5 95t-39.5 95t-95 39.5
t-95 -39.5t-39.5 -95t39.5 -95t95 -39.5t95 39.5z" />
    <glyph glyph-name="security" unicode="&#xf130;" 
d="M396 239q20 0 33.5 -14t13.5 -33v-47v-15v-32v-15q0 -58 -41 -99.5t-99 -41.5h-94q-58 0 -99 41.5t-41 99.5v15v32v15v47q0 10 3.5 18.5t10 14.5t15 10t18.5 4v62q0 59 41 100t99 41t99 -41.5t41 -99.5v-62zM147 301v-62h31v62q0 33 23 55.5t55 22.5t55 -22.5t23 -55.5
v-62h31v62q0 46 -32 78t-77 32t-77 -32t-32 -78zM318 301q0 17 -8 31.5t-22.5 23t-31.5 8.5q-26 0 -44 -18.5t-18 -44.5v-62h124v62zM412 145v47q0 6 -4.5 11t-11.5 5h-31h-218h-32q-4 0 -7.5 -2.5t-5.5 -6t-2 -7.5v-47v-15v-32v-15q0 -45 32 -77t77 -32h94q45 0 77 32
t32 77v15v32v15zM256 145q13 0 22 -9t9 -22q0 -14 -10 -42q-8 -20 -21 -20t-21 20q-10 29 -10 42t9 22t22 9z" />
    <glyph glyph-name="socialsecurity" unicode="&#xf131;" 
d="M267 405q102 -4 173.5 -78.5t71.5 -177.5v-2q-30 38 -79 38q-28 0 -52 -14.5t-36 -39.5q-12 22 -32.5 36.5t-45.5 17.5v-196q0 -13 9 -22.5t22.5 -9.5t23 9.5t9.5 22.5q0 3 1.5 5.5t3.5 4t5 1.5q5 0 8 -3t3 -8q0 -22 -15.5 -37.5t-37.5 -15.5t-38 15.5t-16 37.5v196
q-25 -3 -45.5 -17.5t-32.5 -36.5q-5 10 -12 18t-15.5 15t-18 11.5t-20.5 7t-22 2.5q-49 0 -79 -38v2q0 68 32.5 126t89 92.5t123.5 37.5v32q0 5 3.5 8t7.5 3t7.5 -3t3.5 -8v-32zM433 207q28 0 53 -13q-4 24 -14 47q-18 42 -50.5 74.5t-74.5 50.5q-43 18 -91 18t-91 -18
q-42 -18 -74.5 -50.5t-50.5 -74.5q-10 -23 -14 -47q25 13 53 13q34 0 63 -19q14 -8 25 -20q11 12 25 20q29 19 64 19t64 -19q14 -8 25 -20q11 12 25 20q29 19 63 19z" />
    <glyph glyph-name="sort-down" unicode="&#xf132;" 
d="M499.5 438.5q9.5 -9.5 9.5 -22.5t-10 -22l-222 -223q-10 -9 -23 -9t-22 9l-223 223q-9 9 -9 22t9.5 22.5t22.5 9.5h445q13 0 22.5 -9.5z" />
    <glyph glyph-name="sort-up-down" unicode="&#xf133;" 
d="M344 288q6 -6 6 -15t-6.5 -15.5t-15.5 -6.5h-306q-9 0 -15.5 6.5t-6.5 15.5t6 15l154 154q6 6 15 6t15 -6zM343.5 126.5q6.5 -6.5 6.5 -15.5t-6 -15l-154 -153q-6 -7 -15 -7t-15 7l-154 153q-6 6 -6 15t6.5 15.5t15.5 6.5h306q9 0 15.5 -6.5z" />
    <glyph glyph-name="sort-up" unicode="&#xf134;" 
d="M501 213q9 -10 9 -22.5t-9.5 -22t-22.5 -9.5h-444q-13 0 -22.5 9.5t-9.5 22t9 22.5l223 222q9 10 22 10t22 -10z" />
    <glyph glyph-name="sso" unicode="&#xf135;" 
d="M320.5 391q27.5 0 47.5 -19l68 -68q19 -20 19 -47.5t-19 -46.5l-55 -55q-18 -18 -43 -18q-21 0 -39 12l-29 -28h-57v-43h-42v-42h-43v-43h-71v86l156 156q-13 19 -12 42t18 40l55 55q19 19 46.5 19zM401 247q6 0 10 4q10 11 0 21l-75 75q-4 4 -10 4t-11 -4q-10 -10 0 -20
l76 -76q4 -4 10 -4zM321 420q-40 0 -67 -28l-55 -55q-20 -20 -25 -46t5 -51l-142 -141q-9 -9 -9 -20v-86q0 -12 8.5 -20.5t20.5 -8.5h71q12 0 20 8.5t8 20.5v14h15q11 0 19.5 8.5t8.5 20.5v14h14q12 0 20.5 8t8.5 20v14h28q12 0 20 9l14 14q17 -7 34 -7q37 0 63 27l55 55
q28 27 28 66.5t-28 67.5l-68 68q-28 28 -67 28v0z" />
    <glyph glyph-name="star" unicode="&#xf136;" 
d="M417 309q0 -4 -5 -9l-70 -68l16 -97v-4q0 -9 -8 -9q-3 0 -7 2l-87 46l-87 -46q-4 -2 -7 -2q-4 0 -6.5 2.5t-2.5 6.5q0 2 1 4l16 97l-70 68q-5 5 -5 9q0 8 11 9l97 14l44 88q3 8 9 8t9 -8l44 -88l97 -14q11 -1 11 -9zM315 240l59 58l-82 12l-36 74l-36 -74l-82 -12l59 -58
l-14 -81l73 39l73 -39z" />
    <glyph glyph-name="star2" unicode="&#xf137;" 
d="M417 309q0 -4 -5 -9l-70 -68l16 -96q1 -1 1 -4q0 -10 -8 -10q-4 0 -8 2l-87 46l-87 -46q-4 -2 -7 -2q-4 0 -6.5 3t-2.5 7l1 4l16 96l-70 68q-5 6 -5 10q0 7 11 8l97 14l44 88q3 8 9 8t9 -8l44 -88l97 -14q11 -1 11 -9z" />
    <glyph glyph-name="state" unicode="&#xf138;" 
d="M21 -29v99h63v243h163v99h18v-18h54v-45h-54v-36h163v-243h64v-100q-157 1 -471 1zM364 71v207h17v-206h28v225h-4h-214h-85q-4 0 -4 -3v-219v-2h27v206h18v-206h27v206h18v-206h27v206h18v-207h36v207h18v-207h27v207h18v-207q10 -1 28 -1zM292 34h2h13q3 0 3 -2v-41v-2
h27v45h3h12q3 0 3 -2v-41v-2h27v45h18v-45h27v45h15q3 0 3 -2v-41q0 -2 2 -2h23h2v63q-216 -3 -434 0v-63h28v45h18v-45h26v45h15q2 0 2.5 -0.5t0.5 -2.5v-40q0 -2 3 -2h22h2v45h16q2 0 2 -2v-41q0 -2 3 -2h22h3v45h17v-45h27v45h2h13q3 0 3 -2v-41q0 -2 2 -2h23h2
q2 15 2 45zM301 377h-36v-7q0 -1 0.5 -1.5t1.5 0.5h9h23q2 0 2 1v7z" />
    <glyph glyph-name="tax" unicode="&#xf139;" 
d="M272 72q0 17 18 28.5t46 11.5q7 0 16 -1v137q0 17 18 28.5t46 11.5t46 -11.5t18 -28.5v-192q0 -17 -18 -28.5t-46 -11.5q-8 0 -16 1v-9q0 -17 -18 -28.5t-46 -11.5t-46 11.5t-18 28.5v64zM464 248q0 10 -14 17t-34 7t-34 -7t-14 -17t14 -17t34 -7t34 7t14 17zM464 216
q0 1 -1 4q-18 -12 -47 -12t-47 12q-1 -3 -1 -4q0 -10 14 -17t34 -7t34 7t14 17zM464 184q0 1 -1 4q-18 -12 -47 -12t-47 12q-1 -3 -1 -4q0 -10 14 -17t34 -7t34 7t14 17zM464 152q0 1 -1 4q-18 -12 -47 -12t-47 12q-1 -3 -1 -4q0 -10 14 -17t34 -7t34 7t14 17zM464 120
q0 1 -1 4q-18 -12 -47 -12t-47 12q-1 -3 -1 -4q0 -10 14 -17t34 -7t34 7t14 17zM464 88q0 1 -1 4q-18 -12 -47 -12q-8 0 -18 2q2 -5 2 -10v-7q8 -1 16 -1q20 0 34 7t14 17zM400 33q8 -1 16 -1q20 0 34 7t14 17q0 1 -1 4q-18 -12 -47 -12q-8 0 -16 1v-16zM288 8q0 -10 14 -17
t34 -7t34 7t14 17q0 1 -1 4q-18 -12 -47 -12t-47 12q-1 -3 -1 -4zM288 40q0 -10 14 -17t34 -7t34 7t14 17q0 1 -1 4q-18 -12 -47 -12t-47 12q-1 -3 -1 -4zM288 72q0 -10 14 -17t34 -7t34 7t14 17t-14 17t-34 7t-34 -7t-14 -17zM400 400q7 0 11.5 -4.5t4.5 -11.5v-64
q0 -8 -8 -8t-8 8v64h-256v-320q0 -40 -22 -64h118q8 0 8 -8t-8 -8h-152q-23 0 -38 17.5t-18 45.5q0 7 4.5 12t11.5 5h80v320q0 7 4.5 11.5t11.5 4.5h256zM88 0q14 0 24.5 13.5t14.5 34.5h-79q2 -21 13 -34.5t27 -13.5zM272 304q0 -7 -5 -12q2 -6 -1.5 -12t-9.5 -8
q-2 -6 -8 -10l-2 -1l10 -50q2 -12 -8 -17q-4 -2 -8 -2q-7 0 -11 5l-5 4l-5 -4q-4 -5 -11 -5q-4 0 -8 2q-10 5 -8 17l10 50l-2 1q-6 4 -8 10q-6 2 -9.5 8t-1.5 12q-5 5 -5 12t5 12q-2 6 1.5 12t9.5 8q2 6 8 10q4 2 8 2q2 0 4 -1q5 5 12 5t12 -5q2 1 4 1q4 0 8 -2q6 -4 8 -10
q6 -2 9.5 -8t1.5 -12q5 -5 5 -12zM224 224l16 -16l-10 49q-3 -1 -6 -1t-6 1l-10 -49zM224 272q13 0 22.5 9.5t9.5 22.5t-9.5 22.5t-22.5 9.5t-22.5 -9.5t-9.5 -22.5t9.5 -22.5t22.5 -9.5z" />
    <glyph glyph-name="time" unicode="&#xf13a;" 
d="M384.5 349q19.5 -34 19.5 -74t-19.5 -74.5t-54 -54t-74.5 -19.5t-74.5 19.5t-54 54t-19.5 74.5t19.5 74t54 54t74.5 20t74.5 -20t54 -54zM347 222q14 24 14 53t-14 53t-38 38t-53 14t-53 -14t-38 -38t-14 -53t14 -53t38 -38t53 -14t53 14t38 38zM275 349q2 0 4 -1.5
t2 -4.5v-87q0 -2 -2 -4t-4 -2h-62q-3 0 -4.5 2t-1.5 4v13q0 2 1.5 4t4.5 2h43v68q0 3 1.5 4.5t4.5 1.5h13z" />
    <glyph glyph-name="tool-action" unicode="&#xf13b;" 
d="M402.5 301q1.5 -2 1.5 -5v-43q0 -2 -1.5 -4t-3.5 -3l-36 -5q-3 -11 -7 -18q6 -9 20 -26q2 -3 2 -5.5t-1 -4.5q-6 -7 -20 -20.5t-18 -13.5q-2 0 -5 1l-26 21q-9 -4 -18 -7q-3 -26 -6 -36q-1 -5 -7 -5h-42q-3 0 -5 1.5t-2 3.5l-6 36q-9 3 -17 7l-27 -21q-2 -1 -5 -1t-5 2
q-24 22 -32 32q-1 2 -1 4.5t1 4.5q3 4 10 13t11 14q-6 9 -8 19l-36 5q-2 0 -3.5 2t-1.5 5v43q0 2 1.5 4t3.5 3l36 5q3 9 7 18q-7 11 -20 27q-2 2 -2 4t1 5q6 7 20 20.5t18 13.5q2 0 5 -2l26 -20q9 4 18 7q3 26 6 36q1 5 7 5h42q3 0 5 -1.5t2 -4.5l6 -35q9 -3 17 -7l28 20
q1 2 4 2t5 -2q25 -23 32 -33q1 -1 1 -4q0 -2 -1 -4q-3 -4 -10 -13t-11 -14q5 -9 8 -19l36 -5q2 0 3.5 -2zM290.5 240q14.5 14 14.5 34.5t-14.5 35t-34.5 14.5t-34.5 -14.5t-14.5 -35t14.5 -34.5t34.5 -14t34.5 14z" />
    <glyph glyph-name="tool-back" unicode="&#xf13c;" 
d="M234 275l76 -76q2 -2 2 -4.5t-2 -4.5l-9 -9q-2 -2 -4.5 -2t-4.5 2l-90 90q-2 1 -2 3.5t2 4.5l90 90q2 2 4.5 2t4.5 -2l9 -9q2 -2 2 -4.5t-2 -4.5z" />
    <glyph glyph-name="tool-down" unicode="&#xf13d;" 
d="M411.5 220.5q5.5 -5.5 5.5 -13.5v-62q0 -8 -5.5 -13t-13.5 -5h-284q-8 0 -13.5 5t-5.5 13v62q0 8 5.5 13.5t13.5 5.5h90l26 -27q11 -11 26 -11t26 11l27 27h89q8 0 13.5 -5.5zM339 155q4 4 4 9t-4 8.5t-9 3.5t-8.5 -3.5t-3.5 -8.5t3.5 -9t8.5 -4t9 4zM388.5 155
q3.5 4 3.5 9t-3.5 8.5t-8.5 3.5t-9 -3.5t-4 -8.5t4 -9t9 -4t8.5 4zM247 217l-86 86q-6 6 -3 14q3 7 11 7h50v87q0 5 3.5 8.5t8.5 3.5h50q5 0 8.5 -3.5t3.5 -8.5v-87h50q8 0 11 -7q3 -8 -3 -14l-86 -86q-4 -4 -9 -4t-9 4z" />
    <glyph glyph-name="tool-edit" unicode="&#xf13e;" 
d="M388 407q16 -16 16 -39v-186q0 -23 -16 -39t-39 -16h-186q-23 0 -39 16t-16 39v186q0 23 16 39t39 16h186q23 0 39 -16zM213 176l105 105l-56 56l-105 -105v-56h56zM348 311q5 6 5 13.5t-5 13.5l-29 29q-6 5 -13.5 5t-13.5 -5l-17 -18l55 -55zM176 224l10 10l29 -29
l-10 -10h-11v18h-18v11zM204 253l56 56q3 3 5.5 0.5t-0.5 -5.5l-56 -57q-3 -3 -6 -0.5t1 6.5z" />
    <glyph glyph-name="tool-list" unicode="&#xf13f;" 
d="M420 402q9 -9 9 -22v-210q0 -13 -9 -22t-22 -9h-284q-13 0 -22 9t-9 22v210q0 13 9 22t22 9h284q13 0 22 -9zM404 170v161q0 2 -1.5 4t-4.5 2h-284q-3 0 -4.5 -2t-1.5 -4v-161q0 -3 1.5 -4.5t4.5 -1.5h284q3 0 4.5 1.5t1.5 4.5zM151 213q2 0 4 -2t2 -4v-12q0 -3 -2 -5
t-4 -2h-12q-3 0 -5 2t-2 5v12q0 2 2 4t5 2h12zM151 263q2 0 4 -2t2 -5v-12q0 -2 -2 -4t-4 -2h-12q-3 0 -5 2t-2 4v12q0 3 2 5t5 2h12zM151 312q2 0 4 -2t2 -4v-12q0 -3 -2 -5t-4 -2h-12q-3 0 -5 2t-2 5v12q0 2 2 4t5 2h12zM373 213q3 0 5 -2t2 -4v-12q0 -3 -2 -5t-5 -2h-185
q-2 0 -4 2t-2 5v12q0 2 2 4t4 2h185zM373 263q3 0 5 -2t2 -5v-12q0 -2 -2 -4t-5 -2h-185q-2 0 -4 2t-2 4v12q0 3 2 5t4 2h185zM373 312q3 0 5 -2t2 -4v-12q0 -3 -2 -5t-5 -2h-185q-2 0 -4 2t-2 5v12q0 2 2 4t4 2h185z" />
    <glyph glyph-name="tool-lock" unicode="&#xf140;" 
d="M361.5 282q5.5 -5 5.5 -13v-111q0 -8 -5.5 -13.5t-12.5 -5.5h-186q-7 0 -12.5 5.5t-5.5 13.5v111q0 8 5.5 13t12.5 5h6v37q0 36 25.5 61.5t61.5 25.5t61.5 -25.5t25.5 -61.5v-37h6q7 0 12.5 -5zM305 287v37q0 21 -14.5 35.5t-34.5 14.5t-34.5 -14.5t-14.5 -35.5v-37h98z
" />
    <glyph glyph-name="tool-plus" unicode="&#xf141;" 
d="M384.5 349q19.5 -34 19.5 -74t-19.5 -74.5t-54 -54t-74.5 -19.5t-74.5 19.5t-54 54t-19.5 74.5t19.5 74t54 54t74.5 20t74.5 -20t54 -54zM343 263v24q0 5 -4 9t-9 4h-49v49q0 5 -4 8.5t-9 3.5h-24q-5 0 -9 -3.5t-4 -8.5v-49h-49q-5 0 -9 -4t-4 -9v-24q0 -5 4 -9t9 -4h49
v-49q0 -5 4 -9t9 -4h24q5 0 9 4t4 9v49h49q5 0 9 4t4 9z" />
    <glyph glyph-name="tool-print" unicode="&#xf142;" 
d="M406 289q11 -11 11 -26v-81q0 -2 -2 -4t-5 -2h-43v-31q0 -8 -5.5 -13t-12.5 -5h-186q-7 0 -12.5 5t-5.5 13v31h-43q-3 0 -5 2t-2 4v81q0 15 11 26t26 11h13v105q0 7 5.5 12.5t12.5 5.5h130q8 0 17 -3.5t15 -9.5l29 -29q6 -6 9.5 -15t3.5 -17v-49h13q15 0 26 -11zM343 151
v50h-174v-50h174zM343 275v74h-31q-8 0 -13.5 5.5t-5.5 13.5v31h-124v-124h174zM388.5 254q3.5 4 3.5 9t-3.5 8.5t-8.5 3.5t-9 -3.5t-4 -8.5t4 -9t9 -4t8.5 4z" />
    <glyph glyph-name="tool-refresh" unicode="&#xf143;" 
d="M400.5 407.5q3.5 -3.5 3.5 -8.5v-87q0 -5 -3.5 -8.5t-8.5 -3.5h-87q-5 0 -8.5 3.5t-3.5 8.5t4 9l26 26q-28 27 -67 27q-26 0 -48.5 -12.5t-35.5 -34.5q-2 -4 -10 -23q-2 -4 -6 -4h-39q-2 0 -4 1.5t-2 4.5v1q13 52 52.5 84t92.5 32q28 0 54.5 -10.5t47.5 -30.5l25 25
q4 4 9 4t8.5 -3.5zM393 250q3 0 4.5 -1.5t1.5 -4.5v-1q-12 -52 -51.5 -84t-92.5 -32q-28 0 -54.5 10.5t-46.5 30.5l-25 -25q-4 -4 -9 -4t-8.5 3.5t-3.5 8.5v87q0 5 3.5 8.5t8.5 3.5h87q5 0 8.5 -3.5t3.5 -8.5t-4 -9l-26 -26q14 -13 31 -20t36 -7q26 0 48.5 12.5t35.5 34.5
q2 3 10 23q2 4 6 4h37z" />
    <glyph glyph-name="transportation" unicode="&#xf144;" 
d="M17 200.5q0 95.5 67.5 163t163 67.5t163 -67.5t67.5 -163t-67.5 -163t-163 -67.5t-163 67.5t-67.5 163zM0 200.5q0 -102.5 72.5 -175t175 -72.5t175 72.5t72.5 175t-72.5 175t-175 72.5t-175 -72.5t-72.5 -175zM273 226l6 -6l94 94l-6 6l-6 6l-94 -94zM60 201v-9h34v9v8
h-34v-8zM74 272l-3 -8l31 -13l4 8l3 8l-32 13zM115 333l-6 -6l24 -24l6 6l6 6l-24 24zM176 374l-8 -3l13 -32l8 3l8 4l-13 31zM247 388h-8v-34h8h9v34h-9zM319 374l-8 3l-13 -31l8 -4l8 -3l13 32zM421 272l-3 8l-32 -13l3 -8l4 -8l31 13zM435 200v9h-34v-8v-9h34v8zM421 129
l3 8l-31 13l-4 -8l-3 -8l32 -13zM74 129l3 -8l32 13l-3 8l-4 8l-31 -13zM171 55v35h153v-35h-153zM162 38h171h8v9v51v9h-8h-171h-8v-9v-51v-9h8zM222 200.5q0 10.5 7.5 18t17.5 7.5q5 0 8.5 -1t7 -3.5t5.5 -5.5t3.5 -7t1.5 -8q0 -11 -7.5 -18.5t-18 -7.5t-18 7.5t-7.5 18z
M205 200.5q0 -17.5 12.5 -30t30 -12.5t30 12.5t12.5 30t-12.5 30t-30 12.5t-30 -12.5t-12.5 -30z" />
    <glyph glyph-name="try" unicode="&#xf145;" 
d="M458 200q4 -5 2 -9q0 -67 -33 -125q-34 -57 -91 -90q-56 -34 -124 -34h-58q-5 0 -8.5 3.5t-3.5 8.5v217l-76 -24h-4q-1 0 -6 3t-5 8v45q0 7 9 11l82 25v33l-76 -24h-4q-1 0 -6 2t-5 9v45q0 7 9 11l82 25v90q0 5 3.5 8.5t8.5 3.5h58q5 0 8.5 -3.5t3.5 -8.5v-65l131 36
q6 2 10 -1q5 -2 5 -9v-45q0 -7 -9 -11l-139 -42v-33l133 41q6 3 10 -1q5 -1 5 -8v-45q0 -7 -9 -11l-139 -43v-171q64 3 112 53q46 48 46 116q0 5 3.5 8.5t8.5 3.5h57q5 0 9 -3z" />
    <glyph glyph-name="twitter" unicode="&#xf146;" 
d="M505 347q-20 -31 -52 -54q1 -3 1 -13q0 -42 -12 -82q-13 -41 -37 -78.5t-58 -66.5q-33 -29 -81 -46q-49 -17 -102 -17q-86 0 -157 45q11 -1 25 -1q71 0 126 44q-33 1 -59 20q-26 20 -36 51q9 -2 19 -2q14 0 27 3q-35 8 -58.5 36t-23.5 65v1q22 -12 47 -13q-22 15 -34 37
t-12 48q0 28 14 52q38 -47 93 -75.5t117 -31.5q-2 11 -2 23q0 42 29.5 72t72.5 30q44 0 74 -32q35 7 65 25q-12 -36 -45 -56q30 3 59 16z" />
    <glyph glyph-name="user" unicode="&#xf147;" 
d="M256 -56q-103 0 -175.5 72.5t-72.5 175.5t72.5 175.5t175.5 72.5t175.5 -72.5t72.5 -175.5t-72.5 -175.5t-175.5 -72.5zM393 15q-5 7 -7 9q-6 10 -9 14q-2 2 -6.5 5.5t-23.5 10.5t-45 8q-15 0 -25 10.5t-10 25.5v12v12l12 12q15 6 28 17l2 1q5 3 11 8.5t6 8.5l1 5
q11 52 11 78q0 82 -82 82t-82 -82q0 -16 11 -78l1 -4q1 -8 16 -18l1 -1q19 -13 29 -17l12 -12v-12v-12q0 -10 -4.5 -18t-12.5 -13t-17 -5q-26 -1 -45 -7t-25 -12l-6 -5q-6 -10 -9 -14q-5 -7 -7 -9q62 -47 138 -47q77 0 137 47zM256 416q-93 0 -158.5 -65.5t-65.5 -158.5
q0 -95 69 -162q6 9 13 20q3 4 8 9.5t29.5 15t57.5 11.5q11 0 11 12v12v4q-14 7 -30 18q-28 18 -28 37q-12 60 -12 82q0 107 107 107q39 0 63.5 -16t33.5 -38.5t9 -52.5q0 -9 -3 -30t-6 -36l-3 -16q0 -6 -3 -11.5t-7 -10t-8 -8t-7 -5.5l-3 -2q-14 -11 -30 -18v-4v-12
q0 -12 11 -12q21 -1 38.5 -5t27.5 -9t17 -10t9 -8l2 -4q7 -11 14 -20q68 67 68 162q0 93 -65.5 158.5t-158.5 65.5z" />
    <glyph glyph-name="usermanual" unicode="&#xf148;" 
d="M245 121q2 -3 3 -3l37 -38h-29q0 -7 -4.5 -11.5t-11.5 -4.5h-64q-7 0 -11.5 4.5t-4.5 11.5h-144q-7 0 -11.5 4.5t-4.5 11.5v240q0 7 4.5 11.5t11.5 4.5v25q0 7 7 10q36 13 89 13q28 0 52 -4.5t34 -8.5l10 -5q32 18 96 18q53 0 89 -13q7 -3 7 -10v-4v-21q7 0 11.5 -4.5
t4.5 -11.5v-128q-4 1 -6 1q-20 0 -35 -13q-2 1 -7 2v165q-28 7 -64 7q-45 0 -80 -12v-244q9 4 21 7zM112 126q50 0 80 -12v244q-30 12 -80 12q-36 0 -64 -7v-209v-35q28 7 64 7zM483 124q13 -13 22 -29.5t5.5 -44t-27.5 -51.5q-9 -9 -17 -15t-19 -11.5t-24 -5t-27 7.5
q-15 6 -35.5 10.5t-33.5 4.5l-13 1q-12 1 -20 10.5t-7 21.5t10.5 20t21.5 7l21 -2q4 0 5 2.5t-1 5.5l-79 79q-9 8 -9 20.5t8.5 21t21 8.5t20.5 -9l24 -23q2 8 8 13q8 9 20 9t21 -9l3 -3q2 8 8 13q8 9 20 9t21 -9zM471 10q17 17 22.5 34.5t0.5 31.5t-10.5 22t-11.5 15l-52 52
q-4 3 -9.5 3t-9.5 -3.5t-4 -9t4 -9.5l16 -16q6 -6 0 -12q-3 -3 -6.5 -3t-6.5 3l-36 36q-4 4 -9.5 4t-9.5 -4q-9 -9 0 -18l26 -26q6 -7 0 -13q-2 -3 -6 -3t-7 3l-67 68q-4 3 -9.5 3t-9.5 -3.5t-4 -9t4 -9.5l80 -79q10 -11 4 -24l-4 -6q-6 -6 -15 -6h-2l-22 2q-6 0 -9 -4
q-4 -3 -4 -8q-1 -5 2.5 -9t8.5 -5q48 0 88 -17q11 -6 22 -6q20 0 46 26z" />
    <glyph glyph-name="warning" unicode="&#xf149;" 
d="M247 366q10 17 25 16.5t25 -16.5l173 -280q14 -22 5 -38t-35 -16h-336q-26 0 -35 16t5 38zM262 360l-176 -285q-7 -11 -3 -19t18 -8h342q13 0 17.5 8t-2.5 19l-176 285q-4 6 -10 6t-10 -6zM272 272q7 0 11.5 -4.5t4.5 -11.5v-96q0 -7 -4.5 -11.5t-11.5 -4.5t-11.5 4.5
t-4.5 11.5v96q0 4 2 8t6 6t8 2zM272 80q-7 0 -11.5 4.5t-4.5 11.5t4.5 11.5t11.5 4.5t11.5 -4.5t4.5 -11.5t-4.5 -11.5t-11.5 -4.5z" />
    <glyph glyph-name="youtube" unicode="&#xf14a;" 
d="M505 234q1 -6 1 -20.5v-21.5v-42q-1 -17 -3 -38q-2 -23 -6 -41q-4 -20 -19 -34t-35 -16q-64 -7 -187 -7q-128 0 -187 7q-20 2 -35 16t-19 34q-4 17 -6 41q-2 21 -3 38v42v42q0 17 2 38q2 23 6 41q5 20 20 34t34 16q64 7 188 7q127 0 187 -7q19 -2 34 -16t20 -34
q4 -17 6 -41q2 -21 2 -38zM354 177q9 4 8.5 14.5t-8.5 15.5l-142 89q-9 6 -18.5 1t-9.5 -16v-178q0 -11 10 -16q3 -2 8 -2t10 3z" />
  </font>
</defs>
</svg>
